<?xml version="1.0" standalone="no"?>
<!DOCTYPE svg PUBLIC "-//W3C//DTD SVG 20010904//EN"
 "http://www.w3.org/TR/2001/REC-SVG-20010904/DTD/svg10.dtd">
<svg version="1.0" xmlns="http://www.w3.org/2000/svg"
 width="2372.000000pt" height="2372.000000pt" viewBox="0 0 2372.000000 2372.000000"
 preserveAspectRatio="xMidYMid meet">
<metadata>
Created by potrace 1.11, written by Peter Selinger 2001-2013
</metadata>
<g transform="translate(0.000000,2372.000000) scale(0.100000,-0.100000)"
fill="#000000" stroke="none">
<path d="M15425 19677 c-57 -26 -87 -103 -64 -160 25 -61 64 -83 154 -85 209
-6 384 -51 580 -149 270 -136 491 -365 621 -643 69 -147 118 -357 123 -517 3
-100 21 -140 76 -164 45 -20 82 -18 127 9 47 28 58 66 53 183 -29 705 -521
1307 -1213 1489 -42 11 -99 23 -127 26 -27 4 -53 8 -57 11 -4 2 -60 6 -125 9
-88 3 -126 1 -148 -9z"/>
<path d="M15420 18992 c-42 -23 -69 -74 -66 -122 6 -74 64 -120 153 -120 80 0
183 -27 273 -71 47 -23 90 -47 96 -53 6 -6 32 -29 58 -50 56 -47 126 -141 163
-222 15 -33 28 -61 28 -64 1 -3 7 -24 13 -47 7 -23 15 -77 18 -120 10 -121 41
-168 116 -177 46 -6 112 27 131 66 20 42 15 169 -12 282 -94 393 -445 688
-846 712 -76 5 -95 3 -125 -14z"/>
<path d="M8225 18504 c-317 -56 -564 -294 -630 -609 -16 -75 -17 -436 -18
-5350 0 -2898 3 -5291 7 -5316 12 -83 16 -99 39 -162 98 -270 345 -472 627
-513 25 -3 1616 -6 3535 -6 3481 0 3490 0 3576 20 242 58 422 202 539 431 12
24 33 87 47 140 l25 96 0 5037 c1 4566 -1 5040 -15 5070 -52 110 -189 138
-282 57 -54 -47 -57 -72 -59 -383 l-1 -281 -3380 -5 c-3287 -5 -3382 -6 -3410
-24 -60 -38 -95 -98 -95 -164 0 -64 64 -143 128 -159 22 -5 1429 -9 3398 -8
l3361 0 0 -4712 0 -4713 -3842 0 -3843 0 0 5411 c0 4229 3 5422 12 5463 20 82
55 146 116 207 63 63 129 101 208 118 38 8 927 11 3250 11 3117 0 3198 1 3239
19 77 35 120 135 93 216 -14 44 -67 99 -107 112 -45 16 -6430 12 -6518 -3z"/>
<path d="M15405 18317 c-89 -31 -146 -92 -169 -181 -24 -93 -1 -178 66 -245
77 -77 193 -95 293 -47 187 92 187 361 0 459 -45 23 -143 31 -190 14z"/>
<path d="M10828 17613 c-90 -26 -142 -122 -118 -214 14 -49 44 -85 93 -111 41
-20 46 -21 979 -20 l937 0 36 22 c50 31 86 89 90 143 6 81 -53 166 -126 183
-58 13 -1845 11 -1891 -3z"/>
<path d="M12768 15965 c-2 -2 -25 -5 -53 -8 -27 -4 -66 -9 -85 -11 -119 -17
-131 -19 -180 -31 -11 -3 -30 -7 -42 -10 -100 -22 -330 -126 -491 -222 -166
-99 -423 -292 -593 -444 -150 -134 -432 -425 -555 -573 -13 -16 -29 -34 -34
-40 -30 -33 -151 -184 -221 -276 -473 -620 -866 -1413 -989 -1994 -2 -12 -6
-30 -8 -41 -3 -11 -8 -40 -12 -65 -4 -25 -9 -54 -12 -65 -26 -125 -37 -490
-19 -600 20 -115 50 -246 68 -300 56 -167 153 -327 276 -453 213 -221 369
-280 647 -248 32 4 62 9 65 11 3 2 25 6 49 10 73 11 269 85 403 152 261 131
562 337 858 588 69 58 181 152 250 208 69 56 199 164 290 241 149 126 239 201
295 248 38 31 300 253 311 263 6 5 36 30 65 55 30 24 90 78 134 119 134 126
1142 1137 1160 1164 24 37 45 125 38 159 -6 30 -57 79 -90 85 -160 32 -319 19
-623 -52 -36 -9 -76 -18 -89 -21 -14 -3 -28 -7 -31 -9 -4 -2 -20 -7 -37 -10
-38 -6 -370 -104 -518 -152 -295 -95 -712 -237 -1005 -340 -370 -131 -608
-210 -659 -219 -103 -19 -146 -74 -145 -184 1 -86 33 -158 92 -210 25 -22 52
-41 61 -41 9 -1 30 -3 46 -4 17 -1 80 16 140 38 61 21 290 99 510 172 770 255
816 270 920 291 11 2 31 6 45 9 21 5 130 6 177 3 19 -2 26 -60 13 -109 -28
-104 -158 -280 -349 -474 -130 -131 -136 -137 -296 -275 -357 -308 -774 -603
-1148 -812 -92 -52 -349 -181 -419 -212 -21 -9 -53 -22 -70 -30 -161 -71 -367
-136 -508 -161 -73 -13 -250 -13 -302 -1 -84 20 -162 62 -215 113 -85 83 -120
191 -120 370 -1 228 66 510 219 918 33 88 66 174 73 190 187 419 318 681 560
1120 111 202 292 492 353 566 6 8 55 68 108 134 178 219 427 459 638 614 295
217 644 383 1021 486 110 30 158 29 270 -6 105 -32 97 -3 98 -342 0 -328 -6
-301 65 -299 68 2 185 75 225 139 78 128 67 282 -33 471 -114 214 -320 369
-532 400 -32 5 -59 8 -60 7z"/>
<path d="M6468 15195 c-1 -1 -41 -6 -88 -9 -47 -3 -96 -8 -110 -11 -14 -2 -68
-11 -120 -19 -134 -22 -138 -23 -310 -62 -85 -20 -193 -47 -240 -61 -47 -13
-94 -26 -104 -28 -11 -3 -40 -11 -65 -19 -25 -8 -120 -38 -211 -66 -1214 -383
-2522 -1032 -3232 -1603 -123 -98 -294 -268 -353 -351 -85 -120 -131 -253
-111 -329 7 -31 118 -142 212 -213 118 -88 292 -189 549 -318 132 -67 267
-133 300 -148 33 -15 101 -46 150 -69 122 -56 340 -151 780 -340 204 -88 379
-163 390 -168 11 -5 72 -32 135 -59 549 -239 1030 -507 1375 -766 119 -90 142
-109 239 -196 229 -206 373 -441 419 -685 14 -70 15 -219 3 -285 -57 -308
-205 -558 -516 -871 -255 -257 -524 -463 -889 -681 -211 -126 -617 -316 -796
-374 -22 -7 -67 -22 -100 -35 -55 -20 -144 -48 -220 -69 -70 -20 -302 -79
-330 -84 -16 -3 -88 -16 -160 -30 -128 -24 -144 -27 -235 -41 -25 -4 -52 -9
-60 -10 -16 -3 -96 -14 -145 -20 -16 -2 -59 -6 -95 -10 -36 -3 -76 -8 -90 -10
-110 -16 -561 -36 -840 -37 -174 -1 -619 11 -674 17 -43 5 -239 105 -348 178
-112 74 -228 162 -342 255 l-78 65 -36 -19 c-52 -28 -108 -87 -115 -122 -15
-76 29 -158 148 -277 152 -153 360 -280 716 -440 241 -109 553 -190 839 -219
293 -30 717 -22 990 19 14 2 50 6 80 10 75 9 102 13 195 30 44 8 96 17 115 20
182 30 724 180 837 231 17 8 35 14 40 14 4 0 60 20 123 45 528 209 999 472
1360 761 150 121 385 349 476 464 32 41 62 77 65 80 15 13 161 243 194 305 54
103 123 268 140 335 2 8 11 40 20 70 8 30 18 69 21 85 3 17 9 48 14 70 31 141
28 403 -6 517 -3 10 -7 30 -10 45 -11 61 -79 243 -126 337 -171 340 -451 653
-858 957 -712 533 -1575 934 -2922 1359 -341 107 -434 157 -472 250 -74 185
280 482 934 783 202 93 727 310 895 370 22 7 94 34 160 60 670 254 1675 575
2610 833 88 24 183 51 210 59 28 8 59 17 70 19 11 2 67 16 125 31 58 15 113
29 124 31 10 2 21 6 25 10 3 3 7 49 8 102 1 79 -2 104 -18 136 -47 97 -146
156 -312 187 -56 10 -340 22 -349 14z"/>
<path d="M12600 14979 c-65 -26 -81 -110 -31 -160 82 -81 211 21 151 119 -29
46 -70 61 -120 41z"/>
<path d="M12112 14943 c-18 -10 -49 -34 -68 -52 -38 -38 -109 -175 -119 -231
l-6 -35 22 35 c38 59 125 155 168 184 33 23 47 27 76 22 38 -7 188 -104 244
-157 l34 -33 -7 47 c-4 26 -20 77 -35 114 l-27 67 -80 21 c-126 35 -164 38
-202 18z"/>
<path d="M12440 14888 c0 -3 11 -30 23 -59 13 -30 32 -94 41 -143 23 -118 52
-211 71 -226 42 -35 114 -4 205 89 52 52 150 195 150 217 0 2 -25 -21 -57 -51
-63 -62 -163 -132 -201 -142 -20 -5 -30 0 -49 23 -12 16 -23 32 -23 36 0 25
-97 201 -126 229 -19 18 -34 30 -34 27z"/>
<path d="M12266 14665 c-20 -7 -44 -19 -55 -26 -10 -8 -48 -36 -84 -63 -37
-27 -67 -53 -67 -56 0 -13 134 -67 204 -83 67 -15 267 -20 280 -6 8 7 -17 79
-46 137 -44 86 -142 128 -232 97z"/>
<path d="M20061 14509 c-39 -15 -108 -76 -140 -123 -51 -74 -95 -169 -312
-676 -199 -467 -454 -1045 -587 -1335 -167 -364 -234 -509 -355 -760 -87 -182
-654 -1314 -742 -1480 -29 -55 -96 -185 -150 -290 -54 -104 -118 -228 -143
-275 -50 -96 -114 -217 -195 -370 -30 -58 -80 -152 -110 -210 -66 -129 -157
-301 -207 -395 -20 -38 -77 -146 -125 -240 -49 -93 -115 -213 -148 -265 -254
-404 -402 -725 -441 -950 -3 -19 -8 -46 -11 -60 -11 -50 -6 -166 9 -213 14
-48 53 -106 91 -140 23 -20 149 -93 215 -124 31 -15 74 -24 135 -28 50 -4 106
-8 125 -10 237 -24 791 -24 1158 -1 190 13 251 17 292 21 25 2 77 7 115 10 39
3 86 7 105 10 19 2 71 7 115 10 44 3 91 8 105 10 14 2 61 6 104 10 43 4 86 8
95 10 9 1 52 6 95 10 43 4 86 8 95 10 16 3 112 14 166 20 43 4 225 26 255 30
72 10 109 15 150 20 44 5 101 13 150 20 14 2 48 7 75 11 28 3 57 8 66 9 9 2
40 6 70 10 30 3 65 8 79 10 170 26 304 45 345 50 28 4 57 8 65 10 8 2 38 7 65
10 28 4 91 13 140 21 110 18 128 21 185 29 25 4 124 19 220 35 210 34 246 40
285 46 17 2 41 6 55 9 26 5 116 20 185 30 22 4 83 13 135 22 100 16 104 16
189 28 30 3 63 8 74 11 10 2 45 6 76 9 31 4 63 8 71 10 8 2 40 7 70 10 30 3
66 8 80 10 14 2 48 6 75 10 51 6 78 8 195 20 36 3 70 8 76 10 31 10 270 20
441 19 l192 -1 15 45 c31 90 12 165 -60 234 -61 58 -94 67 -276 75 -318 14
-995 7 -1108 -11 -14 -3 -61 -7 -105 -11 -44 -3 -116 -10 -160 -16 -44 -5 -96
-12 -115 -14 -19 -2 -73 -9 -120 -15 -47 -6 -101 -13 -120 -15 -103 -13 -137
-18 -154 -21 -10 -2 -44 -6 -75 -10 -31 -3 -64 -8 -75 -10 -10 -2 -44 -6 -75
-9 -31 -4 -63 -8 -71 -10 -8 -2 -35 -7 -60 -10 -25 -3 -56 -8 -70 -10 -14 -2
-45 -6 -70 -10 -25 -3 -56 -8 -70 -10 -14 -2 -45 -7 -70 -10 -25 -3 -70 -10
-100 -15 -53 -9 -88 -14 -167 -25 -21 -3 -49 -8 -63 -10 -14 -3 -41 -7 -60
-10 -19 -3 -60 -10 -90 -15 -30 -5 -75 -12 -100 -15 -25 -3 -52 -8 -60 -10 -8
-2 -37 -6 -65 -10 -27 -3 -90 -12 -140 -20 -49 -8 -110 -17 -135 -20 -25 -3
-56 -8 -70 -10 -14 -2 -45 -7 -70 -10 -25 -4 -56 -8 -70 -10 -14 -2 -50 -7
-80 -10 -30 -4 -62 -9 -71 -10 -8 -2 -40 -6 -70 -9 -30 -3 -63 -8 -74 -10 -11
-2 -49 -7 -85 -10 -36 -4 -75 -8 -85 -10 -11 -2 -49 -7 -85 -11 -36 -3 -76 -8
-90 -10 -14 -2 -54 -7 -90 -10 -36 -4 -72 -9 -80 -10 -8 -1 -49 -6 -90 -9 -41
-4 -88 -9 -105 -11 -281 -33 -1278 -22 -1319 15 -23 22 -9 244 25 394 33 142
129 429 189 561 9 22 37 85 60 140 54 128 301 625 350 705 5 8 32 58 61 110
106 196 124 228 202 365 109 190 124 216 140 245 23 43 579 986 677 1150 92
154 203 343 220 375 24 46 151 266 175 305 12 19 39 67 60 105 21 39 47 86 58
105 42 73 155 278 197 355 23 44 46 85 50 90 13 19 148 280 244 475 53 107
103 206 110 220 8 14 34 70 59 125 25 55 56 125 70 155 51 111 146 358 186
485 80 249 107 380 110 535 1 49 -3 116 -9 150 -22 119 -99 253 -164 284 -38
18 -98 20 -135 5z"/>
<path d="M11981 14445 c-82 -88 -88 -155 -18 -203 57 -38 167 -72 292 -88 57
-8 115 -24 150 -41 110 -55 86 -151 -103 -418 -108 -152 -98 -149 58 22 157
171 270 354 270 438 0 79 -25 96 -275 180 -200 67 -259 93 -301 128 l-31 26
-42 -44z"/>
<path d="M11882 14242 c-3 -100 -73 -264 -157 -367 -31 -37 -65 -86 -76 -108
-33 -63 -73 -195 -84 -277 -4 -24 -8 -47 -10 -50 -1 -3 -5 -27 -8 -55 -4 -27
-3 -43 0 -35 54 139 144 271 267 393 77 76 88 94 173 260 72 139 88 177 75
178 -45 2 -124 40 -152 73 -19 23 -27 20 -28 -12z"/>
<path d="M20610 13042 c33 -79 60 -149 60 -156 0 -6 4 -16 9 -21 16 -17 110
-326 130 -430 57 -285 44 -452 -50 -638 l-39 -78 49 -82 c27 -45 57 -99 68
-120 15 -30 22 -36 29 -25 12 14 53 111 60 137 2 9 15 52 28 96 74 245 69 454
-17 715 -33 102 -185 410 -285 578 -34 57 -62 107 -62 110 0 4 -9 18 -20 32
-10 14 8 -39 40 -118z"/>
<path d="M20324 12015 c-77 -23 -142 -91 -159 -165 -27 -116 40 -237 152 -275
89 -31 203 6 256 81 35 49 37 58 44 132 4 43 0 63 -22 107 -50 102 -163 152
-271 120z"/>
<path d="M1719 11916 c-50 -13 -121 -52 -156 -85 -147 -138 -151 -380 -9 -523
117 -119 308 -144 448 -58 67 41 102 82 141 160 29 58 32 73 32 155 0 82 -3
97 -33 157 -33 68 -96 134 -157 166 -78 40 -181 51 -266 28z"/>
<path d="M20611 11596 c-107 -125 -169 -259 -190 -416 -5 -36 -10 -182 -10
-326 -1 -143 -4 -282 -7 -310 -8 -68 -39 -181 -69 -249 -14 -32 -25 -61 -25
-65 0 -12 -111 -212 -158 -285 -44 -67 -174 -242 -223 -300 -174 -204 -434
-457 -654 -636 -308 -250 -690 -509 -1032 -699 -73 -41 -131 -75 -129 -77 1
-2 20 6 42 17 21 11 156 78 299 149 245 121 311 155 480 246 153 82 371 207
480 273 28 17 70 43 95 58 171 103 545 365 669 469 468 389 724 766 778 1147
10 65 9 307 -1 368 -14 86 -59 243 -98 344 -47 120 -168 356 -183 355 -5 0
-34 -29 -64 -63z"/>
<path d="M2310 11279 c-19 -5 -46 -11 -60 -14 -96 -19 -321 -100 -415 -148
-210 -109 -359 -258 -447 -447 -30 -64 -73 -198 -82 -254 -4 -21 -8 -41 -10
-45 -2 -3 -7 -22 -10 -42 -11 -74 -58 -307 -76 -384 -17 -68 -31 -116 -75
-240 -17 -48 45 71 97 185 55 123 77 174 153 355 126 301 219 430 360 496 80
37 109 40 113 12 5 -32 -34 -102 -204 -370 -153 -242 -222 -351 -254 -408 -10
-16 -40 -68 -67 -115 -136 -235 -271 -517 -352 -737 -47 -130 -52 -159 -14
-88 81 153 277 434 487 700 39 49 76 97 83 105 15 18 358 437 381 465 71 85
252 309 319 395 257 334 337 515 251 569 -26 17 -127 22 -178 10z"/>
<path d="M20339 11251 c-20 -20 -58 -54 -85 -76 -232 -190 -338 -329 -374
-492 -11 -48 -14 -179 -6 -223 18 -85 33 -135 66 -213 39 -91 114 -222 134
-234 6 -4 5 1 -3 10 -7 9 -10 17 -6 17 4 0 3 6 -3 13 -10 12 -39 103 -47 149
-3 13 -9 45 -14 72 -5 27 -9 82 -9 122 0 206 90 381 279 544 58 50 73 69 75
94 2 17 5 65 8 106 3 41 10 90 15 109 6 19 10 35 8 36 -1 1 -18 -15 -38 -34z"/>
<path d="M2335 10697 c-157 -220 -193 -284 -196 -352 -6 -119 40 -231 134
-325 91 -92 200 -140 351 -155 38 -4 79 -8 90 -10 135 -20 198 -26 194 -18 -2
4 -45 91 -95 193 -87 177 -133 279 -203 455 -35 86 -119 328 -126 359 -2 11
-7 23 -11 27 -5 5 -67 -74 -138 -174z"/>
<path d="M11829 10666 c-2 -2 -29 -6 -59 -10 -30 -3 -67 -8 -82 -11 -16 -3
-39 -7 -52 -9 -54 -10 -183 -48 -257 -78 l-78 -30 17 -27 c9 -14 21 -29 27
-33 16 -13 82 -2 99 15 9 9 23 14 32 10 12 -5 10 -11 -12 -34 -22 -23 -37 -29
-70 -29 -35 0 -42 -3 -39 -17 2 -10 4 -24 4 -30 1 -19 95 -17 111 1 6 8 26 16
43 18 24 2 33 8 35 25 2 15 -3 22 -18 25 -19 3 -20 5 -6 23 12 16 26 20 75 20
l61 0 -29 -30 c-37 -38 -28 -75 18 -75 27 0 29 2 27 37 -1 44 19 58 105 71 49
7 61 5 132 -27 69 -31 77 -37 77 -62 0 -19 6 -30 20 -34 22 -7 26 -30 8 -42
-15 -9 -20 -10 -51 -12 -15 -1 -28 -11 -36 -27 -8 -19 -16 -24 -29 -19 -20 8
-24 9 -75 20 -33 6 -62 25 -39 25 5 0 31 12 56 26 46 26 47 27 29 46 -15 17
-27 19 -76 15 -41 -4 -66 -12 -82 -27 -20 -19 -37 -26 -68 -29 -4 -1 -3 -10 3
-21 9 -16 8 -20 -5 -20 -9 0 -18 -7 -21 -15 -10 -26 -44 -18 -44 9 0 23 -2 24
-34 15 -19 -5 -70 -30 -115 -55 -75 -43 -80 -47 -69 -67 6 -12 10 -24 8 -27
-2 -2 8 -12 21 -22 21 -15 53 -24 95 -27 7 -1 10 -19 9 -47 -3 -41 -1 -45 18
-42 13 2 28 16 38 37 12 25 27 38 60 50 l43 16 1 54 c1 43 5 57 24 72 13 11
31 17 40 15 9 -3 33 -8 54 -12 38 -6 40 -10 37 -56 -2 -34 17 -36 75 -8 l40
19 3 -48 c2 -40 7 -50 32 -65 42 -24 42 -70 0 -85 -40 -13 -38 -24 9 -46 34
-15 46 -34 30 -50 -6 -6 -109 23 -109 31 0 2 7 16 16 30 22 33 4 56 -23 32
-28 -24 -68 -28 -82 -6 -13 21 -54 24 -70 4 -9 -11 -8 -18 5 -31 9 -9 23 -14
31 -11 11 5 11 1 2 -15 -8 -16 -14 -18 -22 -10 -18 18 -31 13 -73 -24 -21 -19
-34 -35 -29 -35 6 0 -15 -14 -45 -31 -65 -36 -160 -133 -160 -163 0 -14 -17
-31 -54 -54 -84 -52 -100 -73 -97 -132 2 -44 0 -49 -16 -43 -32 11 -50 33 -47
58 l2 25 -99 0 c-86 0 -106 -3 -148 -25 -51 -25 -81 -65 -102 -133 -25 -86 54
-139 131 -88 95 62 89 60 96 42 3 -9 -3 -34 -14 -55 l-21 -39 50 -7 c48 -7 49
-7 50 -43 4 -119 2 -117 89 -127 l55 -6 38 46 c38 45 39 45 84 39 45 -6 73
-22 73 -42 0 -6 6 -12 13 -15 20 -8 100 2 107 13 12 20 48 -4 75 -51 30 -50
35 -53 102 -51 25 1 36 -5 52 -31 11 -17 21 -52 24 -76 4 -42 6 -44 53 -63 27
-11 78 -21 114 -23 36 -1 72 -3 80 -4 9 0 24 -15 33 -31 10 -17 34 -37 53 -45
30 -12 34 -18 29 -37 -4 -13 -15 -34 -26 -48 -45 -59 -51 -72 -55 -117 -3 -27
-6 -57 -9 -68 -2 -11 -4 -34 -4 -51 -1 -44 -50 -78 -114 -78 -43 -1 -51 -5
-63 -28 -11 -21 -12 -37 -3 -77 l11 -50 -57 -73 c-32 -40 -61 -83 -66 -95 -9
-24 -105 -73 -143 -73 -34 0 -42 -28 -11 -40 31 -12 31 -21 0 -50 -23 -22 -24
-25 -8 -42 9 -10 24 -18 33 -18 26 0 28 -7 17 -57 -11 -45 -11 -46 25 -75 48
-38 41 -58 -21 -58 -41 0 -52 5 -104 51 -31 28 -57 55 -57 60 0 5 -13 30 -30
57 -27 44 -29 54 -24 109 5 49 2 68 -12 92 -10 17 -22 31 -27 31 -9 0 -2 106
9 135 3 7 -3 16 -13 19 -17 5 -18 19 -18 146 l0 140 -42 30 c-23 17 -58 37
-76 45 -24 10 -36 22 -40 42 -3 15 -14 37 -24 48 -68 75 -103 128 -97 152 4
13 8 43 9 66 2 23 4 45 4 49 1 4 19 20 42 35 40 26 40 27 35 76 -2 27 -6 51
-8 53 -3 2 -31 6 -64 9 -56 6 -61 8 -107 60 -45 51 -67 63 -140 79 -22 5 -27
11 -22 25 4 15 -1 20 -24 23 -17 2 -32 0 -34 -5 -2 -6 -30 -3 -73 7 -63 16
-71 21 -94 59 -20 33 -24 47 -17 67 8 22 2 36 -36 90 -30 45 -47 80 -51 113
-6 38 -11 47 -27 47 -19 0 -20 -4 -14 -47 3 -26 19 -69 36 -96 38 -61 39 -89
3 -83 -15 3 -27 6 -29 8 -1 2 -15 25 -31 53 -21 37 -29 65 -31 109 -4 115 -23
116 -57 4 -44 -145 -59 -252 -60 -418 -1 -166 5 -255 24 -335 6 -27 14 -60 16
-72 8 -41 71 -218 100 -278 309 -655 1022 -1011 1728 -865 134 28 235 64 381
135 156 77 275 164 413 302 118 118 125 139 72 209 -25 34 -29 48 -30 103 0
53 -4 68 -25 93 -32 38 -31 70 5 137 l29 54 -26 46 c-78 136 -88 158 -87 176
1 11 3 42 5 70 l4 50 -53 6 c-29 4 -61 14 -71 23 -23 21 -73 23 -102 5 -15
-10 -60 -18 -119 -22 l-95 -7 -35 42 c-19 22 -54 61 -77 86 -41 44 -42 47 -42
114 0 44 5 70 13 75 7 5 15 20 18 36 4 21 1 27 -13 27 -25 0 -38 49 -17 64 9
6 50 36 92 66 l76 55 0 47 c0 45 2 49 40 68 25 13 59 20 95 20 31 0 69 7 86
15 16 9 70 18 119 22 l90 6 0 -46 c0 -43 2 -47 28 -52 30 -7 128 -38 155 -49
14 -7 17 -3 17 21 0 28 2 29 45 32 36 1 52 -3 79 -26 35 -27 82 -38 92 -21 9
15 -28 112 -57 149 -16 20 -29 48 -29 62 0 57 -43 43 -60 -19 -7 -24 -15 -44
-18 -44 -17 0 -57 60 -60 89 -2 24 -13 43 -40 67 -20 18 -41 34 -47 35 -5 0
-17 2 -26 4 -27 5 -41 -10 -34 -37 4 -17 23 -35 56 -53 35 -19 49 -32 45 -42
-3 -8 -6 -23 -6 -34 0 -12 -10 -23 -25 -29 -29 -11 -51 -5 -59 17 -5 12 -1 14
19 11 14 -3 30 0 35 7 8 10 -5 23 -54 55 -36 23 -67 51 -70 63 l-5 21 -25 -23
c-16 -15 -33 -21 -52 -19 -24 2 -36 -5 -70 -47 -23 -28 -44 -60 -48 -73 -6
-17 -15 -22 -44 -23 -20 -1 -46 -2 -57 -3 -24 -1 -75 14 -76 22 0 4 -2 16 -4
27 -19 99 4 121 120 113 45 -3 50 -1 53 20 2 15 -2 22 -13 22 -26 0 -17 69 10
75 11 2 31 6 45 9 14 3 37 24 53 46 30 43 67 56 130 46 30 -5 35 -3 32 12 -2
9 -4 28 -4 41 -1 24 -9 25 -53 6 -13 -5 -20 0 -28 20 -6 15 -19 29 -29 32 -39
10 -33 65 9 78 28 9 25 15 -18 51 -151 126 -371 236 -583 293 -70 19 -92 23
-218 41 -55 7 -295 12 -302 6z"/>
<path d="M11136 10435 l-28 -22 36 -7 c21 -4 40 -14 43 -22 3 -10 21 -14 59
-14 52 0 68 10 42 27 -12 7 -20 9 -67 12 -14 1 -18 7 -14 20 7 29 -38 33 -71
6z"/>
<path d="M11008 10343 c-16 -17 -18 -23 -7 -24 8 0 27 -2 42 -3 27 -2 57 23
57 47 0 17 -71 2 -92 -20z"/>
<path d="M11033 10269 c-56 -16 -33 -40 30 -31 18 3 27 10 27 23 0 21 -9 22
-57 8z"/>
<path d="M13093 10130 c-33 -13 -19 -40 21 -40 42 0 50 9 29 32 -18 20 -19 20
-50 8z"/>
<path d="M11172 10099 c-25 -9 -28 -26 -8 -51 23 -31 65 -4 66 43 0 12 -35 16
-58 8z"/>
<path d="M11305 9983 c-29 -6 -65 -25 -65 -35 0 -5 10 -12 22 -17 l21 -8 -21
-21 c-25 -25 -40 -71 -23 -73 6 -1 15 -2 20 -3 5 -1 23 18 40 41 31 43 38 59
23 49 -4 -2 -14 -1 -22 5 -10 6 0 9 33 9 49 0 55 6 35 32 -16 19 -36 26 -63
21z"/>
<path d="M11390 9951 c0 -12 6 -21 15 -21 8 0 15 4 15 9 0 5 -7 14 -15 21 -13
10 -15 9 -15 -9z"/>
<path d="M11364 9889 c0 -31 7 -35 37 -19 30 17 24 47 -9 48 -25 0 -28 -3 -28
-29z"/>
<path d="M11455 9911 c-7 -12 12 -24 25 -16 11 7 4 25 -10 25 -5 0 -11 -4 -15
-9z"/>
<path d="M11434 9865 c-9 -22 4 -35 37 -35 37 0 39 27 3 40 -33 13 -34 13 -40
-5z"/>
<path d="M11355 9837 c-11 -7 -21 -19 -23 -28 -2 -13 5 -16 27 -14 38 3 51 12
51 36 0 21 -23 24 -55 6z"/>
<path d="M20600 9762 c0 -20 -223 -236 -332 -321 -29 -23 -45 -60 -120 -281
-83 -246 -180 -616 -203 -775 -3 -23 -7 -51 -10 -64 -2 -13 -7 -49 -11 -80 -3
-31 -8 -69 -10 -86 -5 -38 -5 -311 0 -345 14 -92 20 -121 41 -184 l23 -71 1
115 c1 63 3 133 5 155 13 117 17 148 36 235 33 154 111 418 153 520 6 14 11
27 12 30 10 29 21 55 133 330 135 328 193 476 230 590 37 111 65 230 57 238
-3 3 -5 0 -5 -6z"/>
<path d="M2703 9730 c-106 -22 -243 -93 -533 -274 -635 -396 -916 -702 -913
-991 3 -217 175 -438 568 -730 44 -32 82 -62 85 -65 3 -3 37 -28 75 -55 39
-27 99 -72 135 -99 62 -48 61 -37 -4 29 -47 49 -140 165 -191 240 -41 60 -132
231 -135 253 0 4 -5 25 -11 47 -68 251 17 462 269 667 154 125 396 270 491
294 142 36 234 -7 446 -207 232 -219 453 -348 714 -418 98 -27 100 -27 216
-46 210 -35 544 -39 815 -11 56 6 163 19 170 21 3 1 34 5 70 10 36 5 68 10 73
11 4 1 16 2 27 3 11 0 20 6 20 12 0 5 -4 8 -10 4 -20 -13 -356 -5 -455 11 -35
5 -131 22 -160 28 -155 31 -346 105 -485 189 -218 132 -387 306 -655 677 -215
298 -339 398 -502 406 -43 1 -97 -1 -120 -6z"/>
<path d="M306 5344 c-93 -29 -207 -121 -239 -192 -6 -15 -14 -29 -18 -32 -16
-12 -37 -131 -33 -191 8 -156 100 -286 250 -356 l59 -27 320 -4 c346 -4 350
-4 378 -60 32 -63 -17 -141 -91 -143 -20 0 -236 -1 -479 -1 l-442 0 1 -155 0
-154 512 3 511 3 68 32 c83 40 163 118 200 197 26 55 48 152 42 191 -2 11 -6
40 -10 65 -14 101 -90 209 -186 267 -95 57 -140 63 -466 63 l-293 0 -30 28
c-21 18 -32 39 -35 65 -5 34 -1 43 29 73 30 30 40 34 88 35 29 0 243 0 475 0
312 1 423 4 425 12 2 7 4 75 4 152 l-1 140 -495 2 c-418 1 -503 -1 -544 -13z"/>
<path d="M1492 4695 l0 -665 614 0 c484 0 614 3 615 13 1 16 1 268 0 283 -1 8
-123 11 -433 12 -238 0 -445 1 -459 1 l-26 1 0 100 -1 100 398 0 397 0 0 155
0 155 -397 0 -396 0 -1 100 0 100 461 0 461 0 -2 145 c0 80 -2 150 -2 155 -1
7 -213 10 -615 10 l-615 0 1 -665z"/>
<path d="M2879 5358 c-3 -10 -4 -1305 -1 -1315 3 -10 43 -13 156 -13 l151 0 0
510 0 510 65 1 c161 2 288 -2 325 -12 84 -23 150 -79 193 -169 l27 -55 2 -380
c1 -209 2 -386 2 -392 1 -10 39 -13 154 -13 l152 0 -1 403 c-1 449 -3 470 -70
597 -73 140 -202 248 -357 301 l-82 27 -357 1 c-197 1 -358 0 -359 -1z"/>
<path d="M4523 5337 c-161 -58 -271 -202 -278 -366 -1 -35 2 -83 7 -105 27
-123 118 -234 235 -289 l68 -32 320 -3 c355 -4 354 -4 382 -70 13 -32 13 -39
-1 -68 -32 -69 -15 -67 -539 -68 l-472 -1 -1 -153 -1 -153 511 3 511 3 70 34
c86 42 162 117 198 192 32 69 39 104 39 194 -1 170 -119 322 -290 375 -58 18
-93 20 -358 20 -198 0 -301 4 -318 11 -25 12 -56 63 -56 93 0 29 22 63 51 80
27 16 71 18 499 18 343 0 470 3 472 12 3 6 4 74 4 151 l-1 140 -495 2 c-490 3
-496 2 -557 -20z"/>
<path d="M6142 5345 c-233 -51 -438 -269 -469 -499 -11 -80 -7 -278 7 -337 53
-226 238 -411 465 -464 94 -23 323 -20 420 5 215 55 395 241 446 460 13 59 17
252 6 335 -23 177 -163 369 -327 447 -41 20 -101 43 -132 51 -76 20 -330 21
-416 2z m401 -325 c60 -30 122 -96 149 -158 29 -65 34 -236 9 -310 -34 -100
-128 -186 -226 -206 -44 -9 -214 -10 -255 -1 -96 21 -175 84 -218 175 -24 50
-27 66 -27 175 0 111 2 124 28 177 33 67 105 136 168 160 35 14 71 17 184 15
126 -2 145 -4 188 -27z"/>
<path d="M7149 5303 c0 -32 -1 -330 -1 -663 l0 -605 154 -3 154 -2 -1 203 0
204 328 -1 329 -1 28 -32 c26 -29 28 -38 28 -110 0 -43 1 -120 1 -170 l1 -93
154 0 154 0 -3 198 c-3 210 -10 247 -60 323 l-24 37 41 82 c41 81 41 83 43
202 2 66 -2 138 -7 161 -31 142 -136 260 -274 307 -51 18 -90 19 -550 20
l-494 0 -1 -57z m969 -264 c35 -19 49 -56 50 -129 2 -87 -11 -123 -51 -144
-28 -15 -67 -17 -347 -14 l-314 3 -1 147 c-1 141 0 147 20 150 11 2 155 2 319
1 222 -1 306 -5 324 -14z"/>
<path d="M9930 5344 c-226 -58 -417 -256 -457 -475 -4 -24 -7 -109 -7 -189 0
-168 18 -243 81 -347 87 -143 213 -238 371 -282 66 -18 105 -20 423 -21 l349
0 0 410 0 410 -308 0 -308 0 1 -152 0 -153 153 -3 152 -3 0 -99 c0 -73 -3
-100 -12 -101 -7 0 -87 -1 -178 0 -182 0 -222 9 -292 60 -94 69 -132 168 -126
324 6 130 41 204 129 270 73 55 95 58 457 59 l332 0 0 154 0 154 -352 -1
c-268 -1 -366 -4 -408 -15z"/>
<path d="M10840 4964 c2 -443 5 -468 71 -600 70 -140 210 -258 364 -307 104
-33 283 -30 377 5 188 70 317 201 386 390 l27 73 3 416 3 417 -155 -1 -156 0
0 -383 c0 -437 -2 -452 -83 -537 -89 -94 -209 -122 -330 -77 -90 34 -175 133
-191 223 -3 12 -5 191 -5 398 l-1 376 -155 0 -156 0 1 -393z"/>
<path d="M12230 4695 l0 -665 155 0 155 0 0 665 0 665 -155 0 -155 0 0 -665z"/>
<path d="M12710 4695 l0 -667 373 4 c352 4 375 5 430 26 99 36 169 82 248 162
88 88 139 181 163 295 23 104 16 329 -12 415 -59 180 -201 326 -390 399 l-67
26 -372 3 -373 3 0 -666z m726 334 c68 -25 131 -85 164 -154 21 -42 25 -67 27
-162 2 -81 -2 -125 -14 -160 -18 -54 -70 -128 -111 -155 -70 -48 -90 -52 -289
-56 l-193 -4 0 356 0 355 58 3 c147 8 302 -2 358 -23z"/>
<path d="M14062 4695 l0 -665 614 0 614 0 1 28 c1 30 1 213 0 253 l-1 26 -442
1 c-244 0 -451 1 -461 1 -15 1 -17 12 -15 101 l1 100 398 0 398 0 -1 155 0
155 -397 0 -398 0 0 100 -1 100 462 0 461 0 -2 138 c-1 75 -2 145 -2 155 -1
16 -37 17 -615 17 l-613 0 -1 -665z"/>
<path d="M15443 4694 l0 -666 371 4 c410 5 413 5 543 78 160 91 280 259 307
434 8 51 9 262 1 301 -40 201 -155 357 -326 443 -136 68 -151 70 -545 71
l-351 1 0 -666z m657 352 c93 -9 175 -67 225 -157 27 -50 30 -63 33 -174 5
-147 -14 -208 -84 -280 -77 -80 -109 -89 -330 -93 l-192 -4 0 356 -1 355 52 3
c65 4 238 0 297 -6z"/>
<path d="M17659 5353 c-1 -11 -1 -1284 0 -1305 1 -17 32 -18 511 -18 401 0
510 3 511 13 4 56 1 276 -4 284 -4 7 -128 10 -357 9 l-350 -1 0 25 c-1 14 -1
244 -1 513 l0 487 -154 0 c-85 0 -155 -3 -156 -7z"/>
<path d="M18789 5358 c-1 -2 -2 -301 -3 -665 l-1 -663 156 0 156 0 0 665 0
665 -153 0 c-85 0 -155 -1 -155 -2z"/>
<path d="M19270 4695 l0 -666 368 3 c353 3 369 4 432 26 198 70 337 211 401
407 23 69 24 79 24 480 l0 410 -152 3 -152 3 -3 -398 -3 -398 -27 -50 c-47
-86 -101 -133 -183 -160 -72 -23 -395 -27 -396 -5 0 8 -2 238 -2 510 l-2 495
-152 3 -153 3 0 -666z"/>
<path d="M20660 4695 l0 -665 155 0 155 0 0 665 0 665 -155 0 -155 0 0 -665z"/>
<path d="M21145 4695 l0 -665 153 2 153 3 0 507 0 507 112 3 c180 5 276 -4
327 -31 85 -44 149 -125 167 -213 5 -24 9 -208 8 -410 l0 -368 152 0 153 0 1
28 c0 15 1 196 1 403 0 357 -1 380 -22 450 -62 211 -211 360 -429 428 -56 17
-97 19 -419 20 l-357 2 0 -666z"/>
<path d="M22950 5341 c-173 -46 -318 -165 -395 -325 -24 -50 -49 -118 -54
-150 -16 -87 -13 -265 5 -353 36 -178 154 -330 319 -413 131 -66 148 -68 541
-69 l351 -1 0 410 0 410 -307 0 -308 0 0 -155 1 -155 153 0 154 0 0 -100 c0
-88 -2 -100 -17 -101 -10 -1 -87 -1 -170 0 -149 0 -210 9 -265 37 -43 22 -104
89 -130 141 -21 43 -23 62 -23 178 0 118 2 135 25 180 26 53 84 116 128 139
65 34 116 38 438 38 l321 0 -1 151 -1 152 -350 1 c-303 2 -359 -1 -415 -15z"/>
</g>
</svg>
